<svg xmlns="http://www.w3.org/2000/svg" viewBox="0 0 24 24">
  <path d="M12 15.5a3.5 3.5 0 1 0 0-7 3.5 3.5 0 0 0 0 7Z" fill="none" stroke="currentColor" stroke-width="2"/>
  <path d="M19.4 15a7.8 7.8 0 0 0 .1-2l2-1.2-2-3.4-2.3.6a7.7 7.7 0 0 0-1.7-1l-.3-2.4H10.8l-.3 2.4a7.7 7.7 0 0 0-1.7 1l-2.3-.6-2 3.4 2 1.2a7.8 7.8 0 0 0 .1 2l-2 1.2 2 3.4 2.3-.6a7.7 7.7 0 0 0 1.7 1l.3 2.4h4.4l.3-2.4a7.7 7.7 0 0 0 1.7-1l2.3.6 2-3.4-2-1.2Z" fill="none" stroke="currentColor" stroke-width="2" stroke-linejoin="round"/>
</svg>